<mxfile host="app.diagrams.net" modified="2023-12-20T12:04:26.723Z" agent="Mozilla/5.0 (Windows NT 10.0; Win64; x64) AppleWebKit/537.36 (KHTML, like Gecko) Chrome/120.0.0.0 Safari/537.36" etag="3j3PqoCEMm2ZRHk0YvAX" version="22.1.11" type="github">
  <diagram name="Page-1" id="ombKam_89DxJ4lr5upq0">
    <mxGraphModel dx="406" dy="1496" grid="1" gridSize="10" guides="1" tooltips="1" connect="1" arrows="1" fold="1" page="1" pageScale="1" pageWidth="850" pageHeight="1100" math="0" shadow="0">
      <root>
        <mxCell id="0" />
        <mxCell id="1" parent="0" />
        <mxCell id="usgYn9X8f8t-WM3A2dDj-1" value="" style="html=1;verticalLabelPosition=bottom;align=center;labelBackgroundColor=#ffffff;verticalAlign=top;strokeWidth=2;strokeColor=#0080F0;shadow=0;dashed=0;shape=mxgraph.ios7.icons.cloud;fillColor=#3399FF;" vertex="1" parent="1">
          <mxGeometry x="400" y="-60" width="110" height="60" as="geometry" />
        </mxCell>
        <mxCell id="usgYn9X8f8t-WM3A2dDj-2" value="" style="outlineConnect=0;dashed=0;verticalLabelPosition=bottom;verticalAlign=top;align=center;html=1;shape=mxgraph.aws3.mobile_client;fillColor=#D2D3D3;gradientColor=none;" vertex="1" parent="1">
          <mxGeometry x="780" y="76.5" width="40.5" height="63" as="geometry" />
        </mxCell>
        <mxCell id="usgYn9X8f8t-WM3A2dDj-3" value="" style="outlineConnect=0;dashed=0;verticalLabelPosition=bottom;verticalAlign=top;align=center;html=1;shape=mxgraph.aws3.mobile_client;fillColor=#D2D3D3;gradientColor=none;" vertex="1" parent="1">
          <mxGeometry x="140" y="80" width="40.5" height="63" as="geometry" />
        </mxCell>
        <mxCell id="usgYn9X8f8t-WM3A2dDj-16" value="" style="edgeStyle=elbowEdgeStyle;elbow=horizontal;endArrow=classic;html=1;curved=0;rounded=0;endSize=8;startSize=8;exitX=0.934;exitY=0.53;exitDx=0;exitDy=0;exitPerimeter=0;entryX=0.5;entryY=0;entryDx=0;entryDy=0;entryPerimeter=0;" edge="1" parent="1" source="usgYn9X8f8t-WM3A2dDj-1" target="usgYn9X8f8t-WM3A2dDj-2">
          <mxGeometry width="50" height="50" relative="1" as="geometry">
            <mxPoint x="357.97" y="-8.881784197001252e-15" as="sourcePoint" />
            <mxPoint x="480.5" y="164.74" as="targetPoint" />
            <Array as="points">
              <mxPoint x="800" y="10" />
            </Array>
          </mxGeometry>
        </mxCell>
        <mxCell id="usgYn9X8f8t-WM3A2dDj-68" value="Receive" style="edgeLabel;html=1;align=center;verticalAlign=middle;resizable=0;points=[];" vertex="1" connectable="0" parent="usgYn9X8f8t-WM3A2dDj-16">
          <mxGeometry x="0.0008" y="2" relative="1" as="geometry">
            <mxPoint x="-120" as="offset" />
          </mxGeometry>
        </mxCell>
        <mxCell id="usgYn9X8f8t-WM3A2dDj-20" value="Internet" style="text;strokeColor=none;align=center;fillColor=none;html=1;verticalAlign=middle;whiteSpace=wrap;rounded=0;" vertex="1" parent="1">
          <mxGeometry x="426" y="-35" width="60" height="30" as="geometry" />
        </mxCell>
        <mxCell id="usgYn9X8f8t-WM3A2dDj-50" value="" style="edgeStyle=orthogonalEdgeStyle;rounded=0;orthogonalLoop=1;jettySize=auto;html=1;" edge="1" parent="1" source="usgYn9X8f8t-WM3A2dDj-31">
          <mxGeometry relative="1" as="geometry">
            <mxPoint x="680" y="90" as="targetPoint" />
          </mxGeometry>
        </mxCell>
        <mxCell id="usgYn9X8f8t-WM3A2dDj-31" value="&lt;font style=&quot;font-size: 14px;&quot;&gt;Missing packet&lt;/font&gt;" style="text;strokeColor=none;align=center;fillColor=none;html=1;verticalAlign=middle;whiteSpace=wrap;rounded=0;" vertex="1" parent="1">
          <mxGeometry x="550" y="50" width="95" height="30" as="geometry" />
        </mxCell>
        <mxCell id="usgYn9X8f8t-WM3A2dDj-32" value="&lt;font style=&quot;font-size: 14px;&quot;&gt;Packet recovery&lt;/font&gt;" style="text;strokeColor=none;align=center;fillColor=none;html=1;verticalAlign=middle;whiteSpace=wrap;rounded=0;" vertex="1" parent="1">
          <mxGeometry x="542.5" y="160" width="110" height="30" as="geometry" />
        </mxCell>
        <mxCell id="usgYn9X8f8t-WM3A2dDj-43" value="" style="sketch=0;pointerEvents=1;shadow=0;dashed=0;html=1;strokeColor=#97D077;fillColor=#505050;labelPosition=center;verticalLabelPosition=bottom;verticalAlign=top;outlineConnect=0;align=center;shape=mxgraph.office.concepts.email_approved;" vertex="1" parent="1">
          <mxGeometry x="250" y="97" width="56" height="46" as="geometry" />
        </mxCell>
        <mxCell id="usgYn9X8f8t-WM3A2dDj-44" value="" style="sketch=0;pointerEvents=1;shadow=0;dashed=0;html=1;strokeColor=#97D077;fillColor=#505050;labelPosition=center;verticalLabelPosition=bottom;verticalAlign=top;outlineConnect=0;align=center;shape=mxgraph.office.concepts.email_approved;" vertex="1" parent="1">
          <mxGeometry x="190" y="97" width="56" height="46" as="geometry" />
        </mxCell>
        <mxCell id="usgYn9X8f8t-WM3A2dDj-45" value="" style="sketch=0;pointerEvents=1;shadow=0;dashed=0;html=1;strokeColor=#97D077;fillColor=#505050;labelPosition=center;verticalLabelPosition=bottom;verticalAlign=top;outlineConnect=0;align=center;shape=mxgraph.office.concepts.email_approved;" vertex="1" parent="1">
          <mxGeometry x="311" y="97" width="56" height="46" as="geometry" />
        </mxCell>
        <mxCell id="usgYn9X8f8t-WM3A2dDj-47" value="" style="sketch=0;pointerEvents=1;shadow=0;dashed=0;html=1;strokeColor=#97D077;fillColor=#505050;labelPosition=center;verticalLabelPosition=bottom;verticalAlign=top;outlineConnect=0;align=center;shape=mxgraph.office.concepts.email_approved;" vertex="1" parent="1">
          <mxGeometry x="590" y="90" width="56" height="46" as="geometry" />
        </mxCell>
        <mxCell id="usgYn9X8f8t-WM3A2dDj-48" value="" style="sketch=0;pointerEvents=1;shadow=0;dashed=0;html=1;strokeColor=#97D077;fillColor=#505050;labelPosition=center;verticalLabelPosition=bottom;verticalAlign=top;outlineConnect=0;align=center;shape=mxgraph.office.concepts.email_approved;" vertex="1" parent="1">
          <mxGeometry x="711" y="90" width="56" height="46" as="geometry" />
        </mxCell>
        <mxCell id="usgYn9X8f8t-WM3A2dDj-60" value="" style="edgeStyle=orthogonalEdgeStyle;rounded=0;orthogonalLoop=1;jettySize=auto;html=1;" edge="1" parent="1" source="usgYn9X8f8t-WM3A2dDj-58" target="usgYn9X8f8t-WM3A2dDj-61">
          <mxGeometry relative="1" as="geometry" />
        </mxCell>
        <mxCell id="usgYn9X8f8t-WM3A2dDj-58" value="" style="sketch=0;pointerEvents=1;shadow=0;dashed=0;html=1;strokeColor=none;fillColor=#505050;labelPosition=center;verticalLabelPosition=bottom;verticalAlign=top;outlineConnect=0;align=center;shape=mxgraph.office.concepts.email;" vertex="1" parent="1">
          <mxGeometry x="652.5" y="180" width="47" height="36" as="geometry" />
        </mxCell>
        <mxCell id="usgYn9X8f8t-WM3A2dDj-61" value="" style="sketch=0;pointerEvents=1;shadow=0;dashed=0;html=1;strokeColor=#660000;fillColor=#505050;labelPosition=center;verticalLabelPosition=bottom;verticalAlign=top;outlineConnect=0;align=center;shape=mxgraph.office.concepts.email_rejected;" vertex="1" parent="1">
          <mxGeometry x="652.5" y="90" width="55" height="45" as="geometry" />
        </mxCell>
        <mxCell id="usgYn9X8f8t-WM3A2dDj-66" value="" style="rounded=0;elbow=vertical;html=1;labelBackgroundColor=#ffffff;endArrow=classic;endFill=1;endSize=6;jettySize=auto;orthogonalLoop=1;strokeWidth=1;fontSize=14;entryX=-0.037;entryY=0.624;entryDx=0;entryDy=0;entryPerimeter=0;edgeStyle=orthogonalEdgeStyle;" edge="1" parent="1" target="usgYn9X8f8t-WM3A2dDj-1">
          <mxGeometry width="60" height="60" relative="1" as="geometry">
            <mxPoint x="210" y="97" as="sourcePoint" />
            <mxPoint x="270" y="37" as="targetPoint" />
            <Array as="points">
              <mxPoint x="210" y="-20" />
              <mxPoint x="340" y="-20" />
              <mxPoint x="340" y="-23" />
            </Array>
          </mxGeometry>
        </mxCell>
        <mxCell id="usgYn9X8f8t-WM3A2dDj-67" value="Send" style="edgeLabel;html=1;align=center;verticalAlign=middle;resizable=0;points=[];" vertex="1" connectable="0" parent="usgYn9X8f8t-WM3A2dDj-66">
          <mxGeometry x="-0.1433" y="3" relative="1" as="geometry">
            <mxPoint x="110" as="offset" />
          </mxGeometry>
        </mxCell>
      </root>
    </mxGraphModel>
  </diagram>
</mxfile>
